<?xml version="1.0" encoding="utf-8"?>
<!-- Generator: Adobe Illustrator 23.1.1, SVG Export Plug-In . SVG Version: 6.00 Build 0)  -->
<svg version="1.1" id="Capa_1" xmlns="http://www.w3.org/2000/svg" xmlns:xlink="http://www.w3.org/1999/xlink" x="0px" y="0px"
	 viewBox="0 0 559.9 170.1" style="enable-background:new 0 0 559.9 170.1;" xml:space="preserve">
<style type="text/css">
	.st0{fill:#605D5F;}
	.st1{fill:#BF2337;}
</style>
<g>
	<g id="XMLID_1847_">
		<path id="XMLID_1968_" class="st0" d="M174.3,84c0.8-0.4,1.6-0.8,3.1-1.6v86H3.1c-0.1-1.7,0-52.9,0-52.9s18.1-10.5,25.3-14.5
			c5.6-3.2,7.5-2.1,7.5,4.2c0,12.6-0.1,25.1-0.1,37.7c0,8.6,6.1,13.7,15.2,11.2c3.5-0.9,6.8-2.8,9.9-4.6
			C98.8,127.7,136.5,105.8,174.3,84z"/>
		<polygon id="XMLID_1967_" class="st1" points="88.6,37.7 41.4,64.9 41.4,28.5 88.6,1.9 		"/>
		<g id="XMLID_1848_">
			<g id="XMLID_1928_">
				<path id="XMLID_1965_" class="st0" d="M211.4,87.6l-10.5,0l0-1.5c1.1-0.2,1.8-0.6,2.1-1.1c0.3-0.5,0.4-1.4,0.4-2.8l-0.1-15.8
					c0-1.5-0.2-2.5-0.5-3.1c-0.3-0.6-1-1-2-1.1l0-1.4l10.5,0l0,1.4c-1,0.2-1.7,0.6-2,1.1c-0.3,0.5-0.5,1.1-0.5,1.9l0.1,17.5
					c0,1.2,0.2,2.1,0.5,2.6c0.3,0.6,1,0.9,2,0.9L211.4,87.6z"/>
				<path id="XMLID_1963_" class="st0" d="M236.2,87.5l-9.7,0l0-1.6c0.9,0,1.5-0.3,1.8-1c0.2-0.5,0.4-1.2,0.4-2.2l0-8.6
					c0-2.4-0.8-3.5-2.4-3.5c-1.4,0-2.6,0.6-3.7,1.9c-1.1,1.2-1.6,2.7-1.6,4.5l0,6.1c0,0.8,0.1,1.4,0.4,1.9c0.3,0.7,1,1,1.9,1l0,1.6
					l-9.7,0l0-1.6c1.1,0,1.8-0.4,2.1-1.3c0.2-0.5,0.2-1.3,0.2-2.6l0-9.2c0-1.6-0.2-2.6-0.6-3.1c-0.2-0.3-0.8-0.6-1.8-0.7l0-1.4
					l6.2-0.7c0.3,0.5,0.6,1,0.8,1.5c0.1,0.3,0.2,0.6,0.2,0.9c0.1,0.3,0.1,0.7,0.2,1c1.3-1.3,2.6-2.2,3.9-2.8
					c1.2-0.6,2.4-0.9,3.5-0.9c3.7,0,5.6,2.1,5.6,6.2l0,10.2c0,1,0.1,1.7,0.2,2c0.3,0.6,1.1,0.8,2.2,0.8L236.2,87.5z"/>
				<path id="XMLID_1961_" class="st0" d="M258.2,68.5h-0.3c-0.5,0-0.9,0.2-1.2,0.4c-0.3,0.3-0.5,0.8-0.7,1.5l-5.2,12.9l-0.4,0.8
					c0,0.1-0.1,0.3-0.2,0.6c-0.1,0.4-0.2,0.6-0.2,0.7c0.1,0.2,0.4,0.4,1,0.4l0,1.6l-7.6,0l0-1.7l0.7,0h0.1c0-0.2-0.1-0.6-0.2-1
					l-0.1-0.3l-5.2-14.6c-0.2-0.4-0.4-0.7-0.6-0.9c-0.3-0.3-0.7-0.4-1.3-0.4l0-1.6l8.8,0l0,1.6c-0.6,0-1,0.1-1.2,0.2
					c-0.2,0.2-0.3,0.4-0.3,0.7l0.2,0.6l3.9,11.8l4.4-12l0.1-0.7c0-0.2-0.1-0.3-0.2-0.5c-0.2-0.1-0.6-0.1-1-0.1l0-1.6l6.8,0
					L258.2,68.5z"/>
				<path id="XMLID_1958_" class="st0" d="M280.2,80.1l-2.4,7.7l-1.2-0.6l-2.8,0.4c-0.8,0.1-1.7,0.2-2.6,0.2c-3.1,0-5.8-0.8-8-2.5
					c-2.3-1.8-3.7-4.2-4-7.3c0-3.2,1-5.9,3-8.1c2-2.2,4.6-3.3,7.7-3.3c2.3,0,4.2,0.6,5.9,1.7c1.9,1.3,3.2,3.3,3.9,5.9l-14.8,4.2
					c0.5,2,1.4,3.5,2.7,4.7c1.3,1.1,2.8,1.7,4.3,1.7c1.5,0,2.7-0.4,3.9-1.2c1.2-0.9,2.2-2.2,2.9-4L280.2,80.1z M273.7,72.9
					c-0.9-2.2-2.3-3.3-4.1-3.3c-1.5,0-2.7,0.6-3.6,1.8c-0.9,1.2-1.3,2.6-1.3,4.1L273.7,72.9z"/>
				<path id="XMLID_1956_" class="st0" d="M296.9,66.8l-1.1,5.3c-0.7-0.4-1.3-0.8-1.7-1c-0.5-0.2-1-0.2-1.4-0.2
					c-1.1,0-2.1,0.6-2.8,1.7c-0.7,1.1-1,2.7-1,4.8l0,4.8c0,1,0.1,1.6,0.3,2c0.4,0.8,1.1,1.2,2.1,1.4l0,1.6l-9.8,0l0-1.6
					c0.9,0,1.5-0.3,1.9-1c0.3-0.5,0.4-1.2,0.4-2.1l0-11c0-0.8-0.1-1.4-0.4-1.9c-0.4-0.7-1-1-2-1l0-1.4l6.3-0.7c0.5,1,0.8,2,1,3
					c0.8-1,1.6-1.7,2.4-2.3c1.2-0.7,2.3-1.1,3.5-1.1l1,0c0.2,0,0.4,0.1,0.6,0.2C296.6,66.7,296.8,66.8,296.9,66.8z"/>
				<path id="XMLID_1954_" class="st0" d="M314.9,80.5c0,2.3-1,4.1-3,5.4c-1.7,1.1-3.8,1.7-6.2,1.7c-1.5,0-3.2-0.2-5.1-0.7l-0.9-0.2
					l-1-0.2c-0.1,0-0.1,0.1-0.2,0.1c-0.1,0-0.1,0.1-0.2,0.2l-1.1,1.3l-0.4-9.8l1.4-0.4c0.3,2.2,1.1,3.9,2.6,5.1
					c1.3,1.1,2.7,1.6,4.4,1.6c1.1,0,2.1-0.2,2.9-0.6c1.1-0.5,1.7-1.3,1.7-2.3c0-1.2-0.9-2-2.8-2.4c-3.2-0.8-5.5-1.7-6.9-2.6
					c-1.7-1.2-2.6-2.7-2.6-4.7c0-1.5,0.6-2.8,1.9-3.8c1.5-1.1,3.4-1.6,5.9-1.6c0.9,0,2.1,0.2,3.7,0.5l2.2,0.4l0.8-0.2l1-0.5l0.5,7.4
					l-1.4,0.3c-0.4-1.7-1.2-2.9-2.5-3.8c-1.1-0.7-2.3-1.1-3.7-1.1c-0.9,0-1.6,0.1-2.2,0.3c-0.6,0.2-1,0.7-1,1.4
					c0,0.4,0.3,0.8,0.8,1.2c0.4,0.4,1,0.7,2,0.9c2.9,0.8,5,1.5,6.1,2.1C313.8,76.8,314.9,78.4,314.9,80.5z"/>
				<path id="XMLID_1951_" class="st0" d="M326.2,87.2l-9.8,0l0-1.6c0.9-0.1,1.6-0.4,1.9-0.8c0.3-0.5,0.5-1.5,0.5-3l0-9.3
					c0-1.6-0.2-2.6-0.6-3.2c-0.3-0.3-0.9-0.6-1.8-0.7l0-1.4l7.4-0.7l0.1,16c0,0.9,0.1,1.6,0.4,2c0.4,0.6,1,1,2,1V87.2z M324.5,62.1
					c0,1.1-0.4,2-1.2,2.6c-0.6,0.5-1.3,0.7-2,0.7c-0.9,0-1.6-0.3-2.2-0.9c-0.6-0.6-1-1.4-1-2.3c0-1.1,0.3-1.9,0.9-2.6
					c0.6-0.7,1.4-1,2.3-1c0.9,0,1.7,0.3,2.3,1C324.1,60.1,324.5,61,324.5,62.1z"/>
				<path id="XMLID_1948_" class="st0" d="M350.2,76.7c0,3.4-1.2,6.2-3.7,8.2c-2.1,1.8-4.7,2.6-7.6,2.6c-2.8,0-5.3-0.8-7.3-2.4
					c-2.5-1.9-3.7-4.6-3.7-8c0-3.3,1-6,3.2-7.9c2.1-2,4.8-3,8.2-3c3.1,0,5.6,0.8,7.7,2.4C349.1,70.6,350.2,73.2,350.2,76.7z
					 M344.6,77.2c0-2.3-0.5-4.1-1.4-5.4c-1-1.6-2.5-2.3-4.3-2.3c-1.5,0-2.7,0.5-3.7,1.5c-1.1,1.2-1.7,2.9-1.7,5.2
					c0,2.6,0.5,4.6,1.6,6.1c1,1.5,2.4,2.2,4.1,2.2c1.6,0,2.8-0.6,3.8-1.8C344.1,81.2,344.6,79.4,344.6,77.2z"/>
				<path id="XMLID_1946_" class="st0" d="M374.8,87.1l-9.7,0l0-1.6c0.9,0,1.5-0.3,1.8-1c0.2-0.5,0.4-1.2,0.3-2.2l0-8.6
					c0-2.4-0.8-3.5-2.4-3.5c-1.4,0-2.6,0.6-3.7,1.9c-1.1,1.2-1.6,2.7-1.6,4.5l0,6.1c0,0.8,0.1,1.4,0.4,1.9c0.3,0.7,1,1,1.9,1v1.6
					l-9.7,0l0-1.6c1.1,0,1.8-0.4,2.1-1.3c0.2-0.5,0.2-1.3,0.2-2.6l0-9.2c0-1.6-0.2-2.6-0.6-3.1c-0.2-0.3-0.8-0.6-1.8-0.7v-1.4
					l6.2-0.7c0.3,0.4,0.6,1,0.8,1.5c0.1,0.3,0.2,0.6,0.2,0.9c0.1,0.3,0.1,0.7,0.2,1c1.3-1.3,2.6-2.2,3.9-2.8
					c1.2-0.6,2.4-0.9,3.5-0.9c3.7,0,5.6,2.1,5.6,6.2l0,10.2c0,1,0.1,1.7,0.2,2c0.3,0.6,1.1,0.8,2.2,0.8L374.8,87.1z"/>
				<path id="XMLID_1943_" class="st0" d="M386,87l-9.8,0l0-1.6c0.9-0.1,1.6-0.4,1.9-0.8c0.3-0.5,0.5-1.5,0.5-3l0-9.3
					c0-1.6-0.2-2.6-0.6-3.1c-0.3-0.3-0.9-0.6-1.8-0.7l0-1.4l7.4-0.7l0.1,16c0,0.9,0.1,1.6,0.4,2c0.4,0.6,1,1,2,1L386,87z
					 M384.2,61.9c0,1.1-0.4,2-1.2,2.6c-0.6,0.5-1.3,0.7-2,0.7c-0.9,0-1.6-0.3-2.2-0.9c-0.6-0.6-1-1.4-1-2.3c0-1.1,0.3-1.9,0.9-2.6
					c0.6-0.7,1.4-1,2.3-1c0.9,0,1.7,0.3,2.3,0.9C383.9,59.9,384.2,60.8,384.2,61.9z"/>
				<path id="XMLID_1941_" class="st0" d="M405.6,80.2c0,2.3-1,4.1-3,5.4c-1.7,1.1-3.8,1.7-6.2,1.7c-1.5,0-3.2-0.2-5.1-0.7l-0.9-0.2
					l-1-0.2c-0.1,0-0.1,0.1-0.2,0.1c-0.1,0-0.1,0.1-0.2,0.2l-1.1,1.3l-0.4-9.8l1.4-0.4c0.3,2.2,1.1,3.9,2.6,5.1
					c1.3,1.1,2.7,1.6,4.4,1.6c1.1,0,2.1-0.2,2.9-0.6c1.1-0.5,1.7-1.3,1.7-2.3c0-1.2-0.9-2-2.8-2.4c-3.2-0.8-5.5-1.7-6.9-2.6
					c-1.7-1.2-2.6-2.7-2.6-4.7c0-1.5,0.6-2.8,1.9-3.8c1.5-1.1,3.4-1.6,5.9-1.6c0.9,0,2.1,0.2,3.7,0.5L402,67l0.8-0.2l1-0.5l0.5,7.4
					l-1.4,0.3c-0.4-1.7-1.2-2.9-2.5-3.8c-1.1-0.7-2.3-1.1-3.7-1.1c-0.9,0-1.6,0.1-2.2,0.3c-0.6,0.2-1,0.7-1.1,1.4
					c0,0.4,0.3,0.8,0.8,1.2c0.4,0.4,1.1,0.7,2,0.9c2.9,0.8,5,1.5,6.1,2.1C404.4,76.5,405.6,78.1,405.6,80.2z"/>
				<path id="XMLID_1939_" class="st0" d="M420.6,82.3l-1.7,4c-1.2,0.3-2.2,0.6-2.9,0.7c-0.8,0.2-1.6,0.2-2.3,0.2
					c-2,0-3.4-0.6-4.2-1.7c-0.7-0.9-1-2.3-1-4.1l0-11.7l-2.5,0v-1.5c1.1-0.3,1.9-0.9,2.4-1.7c0.5-0.8,0.7-1.8,0.7-2.9
					c0-0.6-0.1-1.3-0.2-2.1l4.7-2.2l0,7.6l3.2,0c0.6,0,1-0.2,1.4-0.5l1,0.6l-1.5,3.7c-0.3-0.4-0.6-0.6-0.8-0.7
					c-0.2-0.1-0.4-0.2-0.7-0.2l-0.3,0l-2.3,0l0,11.3c0,0.9,0.2,1.6,0.6,2.1c0.4,0.5,0.9,0.7,1.5,0.7c0.7,0,1.4-0.2,2-0.5
					c0.6-0.4,1.1-0.8,1.4-1.5L420.6,82.3z"/>
				<path id="XMLID_1936_" class="st0" d="M442.5,86.8l-6.3,0c-0.6-0.9-1.1-1.8-1.3-2.6c-0.8,0.9-1.9,1.6-3.2,2.1
					c-1.3,0.5-2.7,0.8-4.2,0.8c-1.5,0-2.7-0.2-3.8-0.7c-1.1-0.5-1.9-1.1-2.4-2c-0.1-0.1-0.1-0.3-0.2-0.5c-0.1-0.2-0.2-0.5-0.2-0.7
					l-0.2-1c0-2.2,1.2-4.1,3.6-5.8c1-0.6,2.4-1.2,4.1-1.8c1.8-0.6,3.7-1.1,5.8-1.5c0-1.4-0.3-2.4-0.8-2.9c-0.6-0.5-1.6-0.7-3.1-0.7
					c-1.4,0-2.7,0.4-4,1.3s-2.3,2-3,3.6l-1.2-0.3l0.7-7.6l1.2,1c0.2,0.1,0.4,0.2,0.6,0.3c1.4-0.5,2.7-0.9,3.9-1.2
					c1.3-0.3,2.6-0.5,3.9-0.5c3.1,0,5.1,0.7,6.1,2.2c0.7,1,1,2.6,1,4.7l0,8.3c0,1.6,0.3,2.7,0.9,3.3c0.3,0.3,1,0.6,1.9,0.8
					L442.5,86.8z M434.4,75.8c-2.5,0.6-4.5,1.4-5.9,2.4c-1.4,1-2.1,2.1-2.1,3.3c0.1,0.7,0.4,1.3,0.9,1.8c0.5,0.4,1.2,0.7,1.9,0.7
					c1.6,0,2.9-0.7,4-2.1c0.5-0.7,0.8-1.5,1-2.5C434.3,78.3,434.4,77.2,434.4,75.8z"/>
				<path id="XMLID_1934_" class="st0" d="M460.9,80c0,2.3-1,4.1-3,5.4c-1.7,1.1-3.8,1.7-6.2,1.7c-1.5,0-3.2-0.2-5.1-0.7l-0.9-0.2
					l-1-0.2c-0.1,0-0.1,0.1-0.2,0.1c-0.1,0-0.1,0.1-0.2,0.2l-1.1,1.3l-0.4-9.8l1.4-0.4c0.3,2.2,1.1,3.9,2.6,5.1
					c1.3,1.1,2.7,1.6,4.4,1.6c1.1,0,2.1-0.2,2.9-0.6c1.1-0.5,1.7-1.3,1.7-2.3c0-1.2-0.9-2-2.8-2.4c-3.2-0.8-5.5-1.7-6.9-2.6
					c-1.7-1.2-2.6-2.7-2.6-4.7c0-1.5,0.6-2.8,1.9-3.8c1.5-1.1,3.4-1.6,5.9-1.6c0.9,0,2.1,0.2,3.7,0.5l2.2,0.4l0.8-0.2l1-0.5l0.5,7.4
					l-1.4,0.3c-0.4-1.7-1.2-2.9-2.5-3.8c-1.1-0.7-2.3-1.1-3.7-1.1c-0.8,0-1.6,0.1-2.2,0.3c-0.6,0.2-1,0.7-1.1,1.4
					c0,0.4,0.3,0.8,0.8,1.2c0.4,0.4,1,0.7,2,0.9c3,0.8,5,1.5,6.1,2.1C459.7,76.3,460.9,77.9,460.9,80z"/>
				<path id="XMLID_1931_" class="st0" d="M496.5,79.4l-2.4,7.7l-1.2-0.6l-2.8,0.4c-0.8,0.1-1.7,0.2-2.6,0.2c-3.1,0-5.8-0.8-8-2.5
					c-2.3-1.8-3.7-4.2-4-7.3c0-3.2,1-5.9,3-8.1c2-2.2,4.6-3.3,7.7-3.3c2.3,0,4.2,0.6,5.9,1.7c1.9,1.3,3.2,3.3,3.9,5.9l-14.8,4.2
					c0.5,2,1.4,3.5,2.7,4.7c1.3,1.1,2.8,1.7,4.3,1.7c1.5,0,2.7-0.4,3.9-1.2c1.2-0.9,2.2-2.2,2.9-4L496.5,79.4z M490,72.2
					c-0.9-2.2-2.3-3.3-4.1-3.3c-1.5,0-2.7,0.6-3.6,1.8c-0.9,1.2-1.3,2.6-1.3,4.1L490,72.2z"/>
				<path id="XMLID_1929_" class="st0" d="M520.8,86.6l-9.7,0l0-1.6c0.9,0,1.5-0.3,1.8-1c0.2-0.5,0.4-1.2,0.4-2.2l0-8.6
					c0-2.4-0.8-3.5-2.4-3.5c-1.4,0-2.6,0.6-3.7,1.9c-1.1,1.2-1.6,2.7-1.6,4.5l0,6.1c0,0.8,0.1,1.4,0.4,1.9c0.3,0.7,1,1,1.9,1l0,1.6
					l-9.7,0v-1.6c1.1,0,1.8-0.4,2.1-1.3c0.2-0.5,0.2-1.3,0.2-2.6l0-9.2c0-1.6-0.2-2.6-0.6-3.1c-0.2-0.3-0.8-0.6-1.8-0.7l0-1.4
					l6.2-0.7c0.3,0.5,0.6,1,0.8,1.5c0.1,0.3,0.2,0.6,0.2,0.9c0.1,0.3,0.1,0.7,0.2,1c1.4-1.3,2.6-2.2,3.9-2.8
					c1.2-0.6,2.4-0.9,3.5-0.9c3.7,0,5.6,2.1,5.6,6.2l0,10.2c0,1,0.1,1.7,0.2,2c0.3,0.6,1.1,0.8,2.2,0.8L520.8,86.6z"/>
			</g>
			<g id="XMLID_1891_">
				<path id="XMLID_1925_" class="st0" d="M226.6,126.9l-10,0l0-1.4c0.7-0.2,1.2-0.5,1.5-0.8c0.3-0.4,0.4-0.8,0.4-1.4
					c0-1.8-0.9-3.5-2.6-5.1c-2-1.8-4.3-2.7-7-2.7l-2.3,6.4l-0.3,2c0,0.5,0.2,0.8,0.6,1.2c0.3,0.3,0.8,0.4,1.6,0.4l0,1.6l-9.1,0
					l0-1.6c0.9-0.1,1.6-0.4,2.1-1c0.4-0.6,0.9-1.5,1.5-2.8l6.8-18.4c0.1-0.4,0.2-0.7,0.2-0.9c0-0.3-0.1-0.5-0.3-0.6
					c-0.2-0.1-0.5-0.2-1-0.3l0-1.4l9.8,0l0,1.3c-0.4,0.1-0.6,0.3-0.8,0.4s-0.3,0.3-0.4,0.6l0.3,1.2l6.9,19.8
					c0.2,0.5,0.4,0.9,0.6,1.2c0.5,0.6,1,0.8,1.7,0.8L226.6,126.9z M215.7,114.2l-3.2-8.9l-2.6,7
					C211.8,112.3,213.7,112.9,215.7,114.2z"/>
				<path id="XMLID_1923_" class="st0" d="M249.5,126.8l-6.7,0l-0.5-1.8c-0.2-0.6-0.3-1.1-0.3-1.5c-1.2,1.1-2.3,1.9-3.4,2.6
					c-1.4,0.8-2.7,1.2-3.8,1.2h-0.6c-1.5,0-2.7-0.4-3.6-1.3c-1-1.1-1.5-2.6-1.5-4.6l0-9.9c0-1.1-0.2-1.8-0.5-2.3
					c-0.4-0.5-1-0.8-1.9-0.8l0-1.4l7.4-0.7l0,13.3c0,1.2,0.2,2.2,0.6,2.8c0.4,0.6,0.9,1,1.6,0.9c1.6-0.3,3-1.1,4.1-2.2
					s1.6-2.7,1.6-4.5l0-4.4c0-1.6-0.1-2.6-0.4-3c-0.3-0.4-0.9-0.7-1.9-0.9l0-1.3l7.4-0.7l0.1,16.2c0,1.1,0.2,1.8,0.6,2.2
					c0.4,0.4,1,0.6,1.8,0.6L249.5,126.8z"/>
				<path id="XMLID_1921_" class="st0" d="M264.4,122.2l-1.7,4c-1.2,0.3-2.2,0.6-2.9,0.7c-0.8,0.2-1.6,0.2-2.3,0.2
					c-2,0-3.4-0.6-4.2-1.7c-0.7-0.9-1-2.3-1-4.1l0-11.7l-2.5,0l0-1.5c1.1-0.3,1.9-0.9,2.4-1.7c0.5-0.8,0.7-1.8,0.7-2.9
					c0-0.6-0.1-1.3-0.2-2.1l4.7-2.2l0,7.6l3.2,0c0.6,0,1-0.2,1.4-0.5l1,0.6l-1.5,3.7c-0.3-0.4-0.6-0.6-0.8-0.7
					c-0.2-0.1-0.4-0.2-0.7-0.2h-0.3l-2.3,0l0,11.3c0,0.9,0.2,1.6,0.6,2.1c0.4,0.5,0.9,0.7,1.5,0.7c0.7,0,1.4-0.2,2-0.5
					c0.6-0.4,1.1-0.8,1.4-1.5L264.4,122.2z"/>
				<path id="XMLID_1918_" class="st0" d="M287,116.2c0,3.4-1.2,6.2-3.7,8.2c-2.1,1.8-4.7,2.6-7.6,2.7c-2.8,0-5.3-0.8-7.3-2.4
					c-2.5-1.9-3.7-4.6-3.7-8c0-3.3,1-6,3.2-8c2.1-2,4.8-3,8.2-3c3.1,0,5.6,0.8,7.7,2.4C285.8,110.1,287,112.8,287,116.2z
					 M281.4,116.7c0-2.3-0.5-4.1-1.4-5.4c-1-1.6-2.5-2.3-4.3-2.3c-1.5,0-2.7,0.5-3.7,1.5c-1.1,1.2-1.7,2.9-1.7,5.2
					c0,2.6,0.5,4.6,1.6,6.1c1,1.5,2.4,2.2,4.1,2.2c1.6,0,2.8-0.6,3.8-1.8C280.8,120.8,281.4,119,281.4,116.7z"/>
				<path id="XMLID_1916_" class="st0" d="M302.2,122.1l-1.7,4c-1.2,0.3-2.2,0.6-2.9,0.7c-0.8,0.2-1.6,0.2-2.3,0.2
					c-2,0-3.4-0.6-4.2-1.7c-0.7-0.9-1-2.3-1-4.1l0-11.7l-2.5,0l0-1.5c1.1-0.3,1.9-0.9,2.4-1.7c0.5-0.8,0.7-1.8,0.7-2.9
					c0-0.6-0.1-1.3-0.2-2.1l4.7-2.2l0,7.6l3.2,0c0.6,0,1-0.2,1.4-0.5l1,0.6l-1.5,3.7c-0.3-0.4-0.6-0.6-0.8-0.7
					c-0.2-0.1-0.4-0.2-0.7-0.2h-0.3l-2.3,0l0,11.3c0,0.9,0.2,1.6,0.6,2.1c0.4,0.5,0.9,0.7,1.5,0.7c0.7,0,1.4-0.2,2-0.5
					c0.6-0.4,1.1-0.8,1.4-1.5L302.2,122.1z"/>
				<path id="XMLID_1914_" class="st0" d="M317.5,106.1l-1.1,5.3c-0.7-0.5-1.3-0.8-1.7-1c-0.5-0.2-1-0.2-1.4-0.2
					c-1.1,0-2.1,0.6-2.8,1.7c-0.7,1.1-1,2.7-1,4.8l0,4.8c0,1,0.1,1.6,0.3,2c0.4,0.8,1.1,1.2,2.1,1.4l0,1.6l-9.8,0l0-1.6
					c0.9,0,1.5-0.3,1.9-1c0.3-0.5,0.4-1.2,0.4-2.1l0-11c0-0.8-0.1-1.4-0.4-1.9c-0.4-0.7-1-1-2-1l0-1.4l6.3-0.7c0.5,1,0.8,2,1,3
					c0.8-1,1.6-1.7,2.4-2.3c1.2-0.7,2.3-1.1,3.5-1.1h1c0.2,0,0.4,0.1,0.6,0.2C317.1,106,317.4,106,317.5,106.1z"/>
				<path id="XMLID_1911_" class="st0" d="M339.2,126.5l-6.2,0c-0.6-0.9-1.1-1.8-1.3-2.6c-0.8,0.9-1.9,1.6-3.2,2.1
					c-1.3,0.5-2.7,0.8-4.2,0.8c-1.5,0-2.7-0.2-3.8-0.7c-1.1-0.5-1.9-1.1-2.4-2c-0.1-0.1-0.1-0.3-0.2-0.5c-0.1-0.3-0.2-0.5-0.2-0.7
					l-0.2-1c0-2.2,1.2-4.1,3.6-5.8c1-0.6,2.4-1.2,4.1-1.8c1.8-0.6,3.7-1.1,5.8-1.5c0-1.4-0.3-2.4-0.8-2.9c-0.6-0.5-1.6-0.7-3.1-0.7
					c-1.4,0-2.7,0.4-4,1.3c-1.3,0.8-2.3,2-3,3.6l-1.2-0.3l0.7-7.6l1.2,1c0.2,0.1,0.4,0.2,0.6,0.3c1.4-0.5,2.7-0.9,3.9-1.2
					c1.3-0.3,2.6-0.5,3.9-0.5c3,0,5.1,0.7,6.1,2.2c0.7,1,1,2.6,1,4.7l0,8.3c0,1.6,0.3,2.7,0.9,3.3c0.3,0.3,1,0.6,1.9,0.8
					L339.2,126.5z M331,115.4c-2.5,0.6-4.5,1.4-5.9,2.4c-1.4,1-2.1,2.1-2.1,3.3c0.1,0.7,0.4,1.3,0.9,1.7c0.5,0.5,1.2,0.7,1.9,0.7
					c1.6,0,2.9-0.7,4-2.1c0.4-0.7,0.8-1.5,0.9-2.5C331,118,331,116.8,331,115.4z"/>
				<path id="XMLID_1909_" class="st0" d="M362.3,126.4l-9.7,0l0-1.6c0.9,0,1.5-0.3,1.8-1c0.2-0.5,0.4-1.2,0.4-2.2l0-8.6
					c0-2.4-0.8-3.5-2.4-3.5c-1.4,0-2.6,0.6-3.7,1.9c-1.1,1.2-1.6,2.7-1.6,4.5l0,6.1c0,0.8,0.1,1.4,0.4,1.9c0.3,0.7,1,1,1.9,1l0,1.6
					l-9.7,0l0-1.6c1.1,0,1.8-0.4,2.1-1.3c0.2-0.5,0.2-1.3,0.2-2.6l0-9.2c0-1.6-0.2-2.6-0.6-3.1c-0.2-0.3-0.8-0.6-1.8-0.7l0-1.4
					l6.2-0.7c0.3,0.5,0.6,1,0.8,1.5c0.1,0.3,0.2,0.6,0.2,0.9c0.1,0.3,0.1,0.7,0.2,1c1.4-1.3,2.6-2.2,3.9-2.8
					c1.2-0.6,2.4-0.9,3.5-0.9c3.7,0,5.6,2.1,5.6,6.2l0,10.2c0,1,0.1,1.7,0.2,2c0.3,0.6,1.1,0.8,2.2,0.8L362.3,126.4z"/>
				<path id="XMLID_1907_" class="st0" d="M381.9,119.6c0,2.3-1,4.1-3,5.4c-1.7,1.1-3.8,1.7-6.2,1.7c-1.5,0-3.2-0.2-5.1-0.7
					l-0.9-0.2l-1-0.2c-0.1,0-0.1,0.1-0.2,0.1c-0.1,0-0.1,0.1-0.2,0.2l-1.2,1.3l-0.4-9.8l1.4-0.4c0.3,2.2,1.1,3.9,2.6,5.1
					c1.3,1.1,2.7,1.6,4.4,1.6c1.1,0,2.1-0.2,2.9-0.6c1.1-0.5,1.7-1.3,1.7-2.3c0-1.2-0.9-2-2.8-2.4c-3.2-0.8-5.5-1.7-6.9-2.6
					c-1.7-1.2-2.6-2.7-2.6-4.7c0-1.5,0.6-2.8,1.9-3.8c1.5-1.1,3.4-1.6,5.9-1.7c0.9,0,2.1,0.2,3.7,0.5l2.2,0.4l0.8-0.2l1-0.5l0.5,7.4
					l-1.4,0.3c-0.4-1.7-1.2-2.9-2.5-3.8c-1.1-0.7-2.3-1.1-3.7-1.1c-0.9,0-1.6,0.1-2.2,0.3c-0.6,0.2-1,0.7-1.1,1.4
					c0,0.4,0.3,0.8,0.8,1.2c0.4,0.4,1.1,0.7,2,0.9c2.9,0.8,5,1.5,6.1,2.1C380.7,115.9,381.9,117.5,381.9,119.6z"/>
				<path id="XMLID_1904_" class="st0" d="M406.1,116.1c0,3-0.8,5.4-2.5,7.2c-2.1,2.1-5.2,3.1-9.5,3.1l-1.8,0l-1.3-0.1l0,3.7
					c0,1,0.2,1.8,0.5,2.2c0.3,0.5,0.9,0.7,1.8,0.7l0,1.6l-9.7,0V133c0.8,0,1.4-0.2,1.8-0.7c0.4-0.4,0.5-1.2,0.5-2.3l-0.1-18.8
					c0-1.5-0.1-2.4-0.4-2.9c-0.3-0.5-1-0.8-2-0.9v-1.5l11,0c4.1,0,7.1,1,9.1,3.1C405.2,110.7,406,113.1,406.1,116.1z M400.7,117
					v-0.6l0-0.4c0-2.1-0.7-3.9-2.1-5.3c-1.4-1.4-3.2-2-5.5-2l-2.2,0l0,12c0,0.5,0,0.9,0.1,1.2c0,0.3,0.2,0.6,0.4,0.7
					c0.2,0.2,0.5,0.4,0.9,0.5c0.4,0.1,0.7,0.2,1,0.2c0.2,0.1,0.4,0.1,0.6,0.1l1.4-0.2c1.5-0.3,2.8-1,3.7-2.1
					C400,120.2,400.5,118.7,400.7,117z"/>
				<path id="XMLID_1901_" class="st0" d="M430.3,115.8c0,3.4-1.2,6.2-3.7,8.2c-2.1,1.8-4.7,2.6-7.6,2.6c-2.8,0-5.3-0.8-7.3-2.4
					c-2.5-1.9-3.7-4.6-3.7-8c0-3.3,1-6,3.2-7.9c2.1-2,4.8-3,8.2-3c3.1,0,5.6,0.8,7.7,2.4C429.1,109.7,430.3,112.3,430.3,115.8z
					 M424.7,116.2c0-2.3-0.5-4.1-1.4-5.4c-1-1.6-2.5-2.3-4.3-2.3c-1.5,0-2.7,0.5-3.7,1.5c-1.1,1.2-1.7,2.9-1.7,5.2
					c0,2.6,0.5,4.6,1.6,6.1s2.4,2.2,4.1,2.2c1.6,0,2.8-0.6,3.8-1.8C424.1,120.3,424.7,118.5,424.7,116.2z"/>
				<path id="XMLID_1899_" class="st0" d="M447.3,105.7l-1.1,5.3c-0.7-0.4-1.3-0.8-1.7-0.9c-0.5-0.2-1-0.2-1.4-0.2
					c-1.1,0-2.1,0.6-2.8,1.7s-1,2.7-1,4.8l0,4.8c0,1,0.1,1.6,0.3,2c0.4,0.8,1.1,1.2,2.1,1.4l0,1.6l-9.8,0l0-1.6c0.9,0,1.5-0.3,1.9-1
					c0.3-0.5,0.4-1.2,0.4-2.1l0-11c0-0.8-0.1-1.4-0.4-1.9c-0.4-0.7-1-1-2-1l0-1.4l6.3-0.7c0.5,1,0.8,2,1,3c0.8-1,1.6-1.7,2.4-2.3
					c1.2-0.7,2.3-1.1,3.5-1.1l1,0c0.2,0,0.4,0.1,0.6,0.2C446.9,105.5,447.1,105.6,447.3,105.7z"/>
				<path id="XMLID_1897_" class="st0" d="M460.6,121.6l-1.7,4c-1.2,0.3-2.2,0.6-2.9,0.7c-0.8,0.2-1.6,0.2-2.3,0.2
					c-2,0-3.4-0.6-4.2-1.7c-0.7-0.9-1-2.3-1-4.1l0-11.7l-2.5,0l0-1.5c1.1-0.3,1.9-0.9,2.4-1.7c0.5-0.8,0.7-1.8,0.7-2.9
					c0-0.6-0.1-1.3-0.2-2.1l4.7-2.2l0,7.6l3.2,0c0.6,0,1-0.2,1.4-0.5l1,0.6l-1.5,3.7c-0.3-0.4-0.6-0.6-0.8-0.7
					c-0.2-0.1-0.4-0.2-0.7-0.2H456l-2.3,0l0,11.3c0,0.9,0.2,1.6,0.6,2.1c0.4,0.5,0.9,0.7,1.5,0.7c0.7,0,1.4-0.2,2.1-0.5
					c0.6-0.4,1.1-0.8,1.4-1.5L460.6,121.6z"/>
				<path id="XMLID_1894_" class="st0" d="M482,118.8l-2.4,7.7l-1.2-0.6l-2.8,0.4c-0.8,0.1-1.7,0.2-2.6,0.2c-3.1,0-5.8-0.8-8-2.5
					c-2.3-1.8-3.7-4.2-4-7.3c0-3.2,1-5.9,3-8.1c2-2.2,4.6-3.3,7.7-3.3c2.3,0,4.2,0.6,5.9,1.7c1.9,1.3,3.2,3.3,3.9,5.9l-14.8,4.2
					c0.5,2,1.4,3.5,2.7,4.7c1.3,1.1,2.8,1.7,4.3,1.7c1.5,0,2.7-0.4,3.9-1.2c1.2-0.9,2.2-2.2,2.9-4L482,118.8z M475.5,111.6
					c-0.9-2.2-2.3-3.3-4.1-3.3c-1.5,0-2.7,0.6-3.6,1.8c-0.9,1.2-1.3,2.6-1.3,4.1L475.5,111.6z"/>
				<path id="XMLID_1892_" class="st0" d="M501.6,119.2c0,2.3-1,4.1-3,5.4c-1.7,1.1-3.8,1.7-6.2,1.7c-1.5,0-3.2-0.2-5.1-0.7
					l-0.9-0.2l-1-0.2c-0.1,0-0.1,0.1-0.2,0.1c-0.1,0-0.1,0.1-0.2,0.2l-1.1,1.3l-0.4-9.8l1.4-0.4c0.3,2.2,1.1,3.9,2.6,5.1
					c1.3,1.1,2.7,1.6,4.4,1.6c1.1,0,2.1-0.2,2.9-0.6c1.1-0.5,1.7-1.3,1.7-2.3c0-1.2-0.9-2-2.8-2.4c-3.2-0.8-5.5-1.7-6.9-2.6
					c-1.7-1.2-2.6-2.7-2.6-4.7c0-1.5,0.6-2.8,1.9-3.8c1.5-1.1,3.4-1.6,5.9-1.7c0.9,0,2.1,0.2,3.7,0.5l2.2,0.4l0.8-0.2l1-0.5l0.5,7.4
					l-1.4,0.3c-0.4-1.7-1.2-2.9-2.5-3.8c-1.1-0.7-2.3-1.1-3.7-1.1c-0.8,0-1.6,0.1-2.2,0.3c-0.6,0.2-1,0.7-1,1.4
					c0,0.4,0.3,0.8,0.8,1.2c0.4,0.4,1,0.7,2,0.9c3,0.8,5,1.5,6.1,2.1C500.5,115.5,501.6,117.1,501.6,119.2z"/>
			</g>
			<g id="XMLID_1849_">
				<path id="XMLID_1889_" class="st0" d="M230.4,166.2l-10.5,0l0-1.5c1-0.1,1.6-0.4,2-0.9c0.3-0.5,0.5-1.4,0.5-2.6l-0.1-16.5
					l-7.8,12.9l-7.2-12.8l0.1,16c0,1.4,0.2,2.3,0.4,2.9s1,0.9,2,1l0,1.5l-8.7,0l0-1.5c1-0.2,1.6-0.5,2-0.9c0.4-0.5,0.5-1.3,0.5-2.6
					l-0.1-16.6c0-1.3-0.2-2.3-0.5-2.8c-0.4-0.5-1.1-0.9-2-1l0-1.5l10.9,0l0,1.5c-0.4,0-0.7,0.1-0.7,0.2l0.2,0.6
					c0.1,0.3,0.4,0.8,0.8,1.5l3.4,6.3l4.3-7.1l0.4-0.6l0.1-0.6c0-0.2-0.2-0.3-0.7-0.3l0-1.5l10.5,0l0,1.5c-1.7,0.2-2.5,1.2-2.5,3.1
					l0.1,16.9c0,1.6,0.2,2.6,0.7,3.2c0.3,0.3,0.9,0.6,1.8,0.8L230.4,166.2z"/>
				<path id="XMLID_1886_" class="st0" d="M253.5,158.9l-2.4,7.7l-1.2-0.6l-2.8,0.4c-0.8,0.1-1.7,0.2-2.6,0.2c-3.1,0-5.8-0.8-8-2.5
					c-2.3-1.8-3.7-4.2-4-7.3c0-3.2,1-5.9,3-8.1c2-2.2,4.6-3.3,7.7-3.3c2.3,0,4.2,0.6,5.9,1.7c1.9,1.3,3.2,3.3,3.9,5.9l-14.8,4.2
					c0.5,2,1.4,3.5,2.7,4.7c1.3,1.1,2.8,1.7,4.3,1.7c1.5,0,2.7-0.4,3.9-1.2c1.2-0.9,2.2-2.2,2.9-4L253.5,158.9z M247,151.7
					c-0.9-2.2-2.3-3.3-4.1-3.3c-1.5,0-2.7,0.6-3.6,1.8c-0.9,1.2-1.3,2.6-1.3,4.1L247,151.7z"/>
				<path id="XMLID_1884_" class="st0" d="M276.4,166.1l-9.2,0l0-1.6l0.8,0c0.2-0.1,0.3-0.1,0.3-0.1c0,0,0.1,0,0.1-0.1
					c0-0.4-0.3-0.9-0.8-1.6l-3.1-4.8l-3,3.8l-0.9,1.4c-0.3,0.4-0.4,0.8-0.5,1.1c0.1,0.2,0.4,0.3,1.2,0.3l0,1.6l-7.1,0l0-1.5
					c0.7-0.2,1.4-0.5,2-1l1.1-1.3l5.6-7l-4.4-6.5c-0.5-0.5-0.9-0.9-1.3-1.2c-0.4-0.3-0.9-0.4-1.4-0.4l0-1.6l9.5,0l0,1.5l-1.1,0.1
					c-0.2,0-0.3,0.1-0.4,0.3l0.2,0.6l0.6,1l1.4,2.2l2-2.7c0.4-0.5,0.6-0.9,0.6-1.1c-0.1-0.1-0.1-0.1-0.1-0.1
					c-0.2-0.1-0.3-0.1-0.5-0.1h-0.6l0-1.6l7.6,0l0,1.6c-1.2,0-2.5,0.7-3.7,2.1l-3.7,4.6l5.9,8.5c0.5,0.7,0.9,1.2,1.3,1.5
					c0.4,0.3,0.9,0.5,1.5,0.6L276.4,166.1z"/>
				<path id="XMLID_1881_" class="st0" d="M286.8,166.1l-9.8,0l0-1.6c0.9-0.1,1.6-0.4,1.9-0.8c0.3-0.5,0.5-1.5,0.5-3l0-9.3
					c0-1.6-0.2-2.6-0.6-3.2c-0.3-0.3-0.9-0.6-1.8-0.7l0-1.4l7.4-0.7l0,16c0,0.9,0.1,1.6,0.4,2c0.4,0.6,1,1,2,1L286.8,166.1z
					 M285,140.9c0,1.1-0.4,2-1.2,2.6c-0.6,0.5-1.3,0.7-2,0.7c-0.9,0-1.6-0.3-2.2-1c-0.6-0.6-1-1.4-1-2.3c0-1.1,0.3-1.9,0.9-2.6
					c0.6-0.7,1.4-1,2.3-1c0.9,0,1.7,0.3,2.3,0.9C284.7,139,285,139.8,285,140.9z"/>
				<path id="XMLID_1879_" class="st0" d="M308.7,159.7l-2.2,6.6l-1.4-0.3l-2.3,0.2l-1.8,0.1c-4.2,0-7.4-1.2-9.5-3.7
					c-0.9-1-1.6-2-2.1-3.1c-0.6-1.2-0.9-2.6-0.9-3.9c0-3,0.8-5.4,2.3-7.3c1.8-2.1,4.4-3.2,7.7-3.2l1.9,0l2.9,0.4l0.8-0.2l1.2-0.7
					l1.5,7.4l-1.2,0.5c-0.5-1.4-1.4-2.4-2.5-3.2c-1.1-0.8-2.3-1.1-3.6-1.1c-1.6,0-2.9,0.6-3.9,1.8c-1.1,1.3-1.7,3.2-1.7,5.8
					c0,2.1,0.8,3.9,2.2,5.3c1.5,1.4,3.2,2.1,5,2.1c1.2,0,2.3-0.3,3.3-1c1.1-0.7,2.1-1.8,2.9-3.3L308.7,159.7z"/>
				<path id="XMLID_1876_" class="st0" d="M331.3,165.9l-6.3,0c-0.6-0.9-1.1-1.8-1.3-2.6c-0.8,0.9-1.9,1.6-3.2,2.1
					c-1.3,0.5-2.7,0.8-4.2,0.8c-1.5,0-2.7-0.2-3.8-0.7c-1.1-0.5-1.9-1.1-2.4-2c-0.1-0.1-0.1-0.3-0.2-0.5c-0.1-0.3-0.2-0.5-0.2-0.7
					l-0.2-1c0-2.2,1.2-4.1,3.6-5.8c1-0.6,2.4-1.2,4.1-1.8c1.8-0.6,3.7-1.1,5.8-1.5c0-1.4-0.3-2.4-0.8-2.9c-0.6-0.5-1.6-0.7-3.1-0.7
					c-1.4,0-2.7,0.4-4,1.3c-1.3,0.8-2.3,2-3,3.6l-1.2-0.3l0.7-7.6l1.2,1c0.2,0.1,0.4,0.2,0.6,0.3c1.4-0.5,2.7-0.9,3.9-1.2
					c1.3-0.3,2.6-0.5,3.9-0.5c3.1,0,5.1,0.7,6.1,2.2c0.7,1,1,2.6,1,4.7l0,8.3c0,1.6,0.3,2.7,0.9,3.3c0.3,0.3,1,0.6,1.9,0.8
					L331.3,165.9z M323.1,154.8c-2.5,0.6-4.5,1.4-5.9,2.4c-1.4,1-2.1,2.1-2.1,3.3c0.1,0.7,0.4,1.3,0.9,1.7c0.5,0.4,1.2,0.7,1.9,0.7
					c1.6,0,2.9-0.7,4-2.1c0.5-0.7,0.8-1.5,1-2.5C323,157.4,323.1,156.2,323.1,154.8z"/>
				<path id="XMLID_1874_" class="st0" d="M354.3,165.8l-9.7,0l0-1.6c0.9,0,1.5-0.3,1.8-1c0.2-0.5,0.4-1.2,0.3-2.2l0-8.6
					c0-2.4-0.8-3.5-2.4-3.5c-1.4,0-2.6,0.6-3.7,1.9c-1.1,1.2-1.6,2.7-1.6,4.5l0,6.1c0,0.8,0.1,1.4,0.4,1.9c0.3,0.7,1,1,1.9,1l0,1.6
					l-9.7,0l0-1.6c1.1,0,1.8-0.4,2.1-1.3c0.2-0.5,0.2-1.3,0.2-2.6l0-9.2c0-1.6-0.2-2.6-0.6-3.1c-0.2-0.3-0.8-0.6-1.8-0.7l0-1.4
					l6.2-0.7c0.3,0.5,0.6,1,0.8,1.5c0.1,0.3,0.2,0.6,0.2,0.9c0.1,0.3,0.1,0.7,0.2,1c1.3-1.3,2.6-2.2,3.9-2.8
					c1.2-0.6,2.4-0.9,3.5-0.9c3.7,0,5.6,2.1,5.6,6.2l0,10.2c0,1,0.1,1.7,0.2,2c0.3,0.6,1,0.8,2.2,0.8L354.3,165.8z"/>
				<path id="XMLID_1871_" class="st0" d="M378.3,155.3c0,3.4-1.2,6.2-3.7,8.2c-2.1,1.8-4.7,2.6-7.6,2.7c-2.8,0-5.3-0.8-7.3-2.4
					c-2.5-1.9-3.7-4.6-3.7-8c0-3.3,1-6,3.2-8c2.1-2,4.8-3,8.2-3c3.1,0,5.6,0.8,7.7,2.4C377.2,149.2,378.3,151.8,378.3,155.3z
					 M372.7,155.8c0-2.3-0.5-4.1-1.4-5.4c-1-1.6-2.5-2.3-4.3-2.3c-1.5,0-2.7,0.5-3.7,1.5c-1.1,1.2-1.7,2.9-1.7,5.2
					c0,2.6,0.5,4.6,1.6,6.1c1,1.5,2.4,2.2,4.1,2.2c1.6,0,2.8-0.6,3.8-1.8C372.2,159.9,372.7,158,372.7,155.8z"/>
				<path id="XMLID_1869_" class="st0" d="M398.2,158.9c0,2.3-1,4.1-3,5.4c-1.7,1.1-3.8,1.7-6.2,1.7c-1.5,0-3.2-0.2-5.1-0.7
					l-0.9-0.2l-1-0.2c-0.1,0-0.1,0.1-0.2,0.1c-0.1,0-0.1,0.1-0.2,0.2l-1.2,1.3l-0.4-9.8l1.4-0.4c0.3,2.2,1.1,3.9,2.6,5.1
					c1.3,1.1,2.7,1.6,4.4,1.6c1.1,0,2.1-0.2,2.9-0.6c1.1-0.5,1.7-1.3,1.7-2.3c0-1.2-0.9-2-2.8-2.4c-3.2-0.8-5.5-1.7-6.9-2.6
					c-1.7-1.2-2.6-2.7-2.6-4.7c0-1.5,0.6-2.8,1.9-3.8c1.5-1.1,3.4-1.6,5.9-1.7c0.9,0,2.1,0.2,3.7,0.5l2.2,0.4l0.8-0.2l1-0.5l0.5,7.4
					l-1.4,0.3c-0.4-1.7-1.2-2.9-2.5-3.8c-1.1-0.7-2.3-1.1-3.7-1.1c-0.9,0-1.6,0.1-2.2,0.3c-0.6,0.2-1,0.7-1.1,1.4
					c0,0.4,0.3,0.8,0.8,1.2c0.4,0.4,1.1,0.7,2,0.9c2.9,0.8,5,1.5,6.1,2.1C397.1,155.2,398.2,156.9,398.2,158.9z"/>
				<path id="XMLID_1867_" class="st0" d="M409.6,159.9l-5,9l-5,0c0.8-0.7,1.4-1.5,1.9-2.3l1-2.2l1.1-2.1c0.3-0.5,0.4-1,0.4-1.3
					v-0.2l0-1L409.6,159.9z"/>
				<path id="XMLID_1865_" class="st0" d="M443.4,158.8c0,2.3-1,4.1-3,5.4c-1.7,1.1-3.8,1.7-6.2,1.7c-1.5,0-3.2-0.2-5.1-0.7
					l-0.9-0.2l-1-0.2c-0.1,0-0.1,0.1-0.2,0.1c-0.1,0-0.1,0.1-0.2,0.2l-1.2,1.3l-0.4-9.8l1.4-0.4c0.3,2.2,1.1,3.9,2.6,5.1
					c1.3,1.1,2.7,1.6,4.4,1.6c1.1,0,2.1-0.2,2.9-0.6c1.1-0.5,1.7-1.3,1.7-2.3c0-1.2-0.9-2-2.8-2.4c-3.2-0.8-5.5-1.7-6.9-2.6
					c-1.7-1.2-2.6-2.7-2.6-4.7c0-1.5,0.6-2.8,1.9-3.8c1.5-1.1,3.4-1.6,5.9-1.7c0.9,0,2.1,0.2,3.7,0.5l2.2,0.4l0.8-0.2l1-0.5l0.5,7.4
					l-1.4,0.3c-0.4-1.7-1.2-2.9-2.5-3.8c-1.1-0.7-2.3-1.1-3.7-1.1c-0.9,0-1.6,0.1-2.2,0.3c-0.6,0.2-1,0.7-1.1,1.4
					c0,0.4,0.3,0.8,0.8,1.2c0.4,0.4,1,0.7,2,0.9c3,0.8,5,1.5,6.1,2.1C442.3,155.1,443.4,156.7,443.4,158.8z"/>
				<path id="XMLID_1863_" class="st0" d="M453.1,162.5c0,1-0.3,1.8-0.9,2.4c-0.6,0.6-1.3,1-2.2,1c-0.9,0-1.7-0.3-2.3-1
					c-0.6-0.6-0.9-1.4-0.9-2.4c0-0.9,0.3-1.7,0.9-2.3c0.6-0.7,1.4-1,2.3-1c0.8,0,1.5,0.3,2.2,1C452.8,160.8,453.1,161.6,453.1,162.5
					z"/>
				<path id="XMLID_1860_" class="st0" d="M479.6,165.4l-6.3,0c-0.6-0.9-1.1-1.8-1.3-2.6c-0.8,0.9-1.9,1.6-3.2,2.1s-2.7,0.8-4.2,0.8
					c-1.5,0-2.7-0.2-3.8-0.7c-1.1-0.5-1.9-1.1-2.4-2c-0.1-0.1-0.1-0.3-0.2-0.5c-0.1-0.3-0.2-0.5-0.2-0.7l-0.2-1
					c0-2.2,1.2-4.1,3.6-5.8c1-0.6,2.4-1.2,4.1-1.8c1.8-0.6,3.7-1.1,5.8-1.5c0-1.4-0.3-2.4-0.8-2.9c-0.6-0.5-1.6-0.7-3.1-0.7
					c-1.4,0-2.7,0.4-4,1.3c-1.3,0.8-2.3,2-3,3.6l-1.2-0.3l0.7-7.6l1.2,1c0.2,0.1,0.4,0.2,0.6,0.3c1.4-0.5,2.7-0.9,3.9-1.2
					c1.3-0.3,2.6-0.5,3.9-0.5c3.1,0,5.1,0.7,6.1,2.2c0.7,1,1,2.6,1,4.7l0,8.3c0,1.6,0.3,2.7,0.9,3.3c0.3,0.3,1,0.6,1.9,0.8
					L479.6,165.4z M471.4,154.4c-2.5,0.6-4.5,1.4-5.9,2.4s-2.1,2.1-2.1,3.3c0.1,0.7,0.4,1.3,0.9,1.8c0.5,0.4,1.2,0.7,1.9,0.7
					c1.6,0,2.9-0.7,4-2.1c0.5-0.7,0.8-1.5,1-2.5C471.3,156.9,471.4,155.7,471.4,154.4z"/>
				<path id="XMLID_1858_" class="st0" d="M487.9,162.4c0,1-0.3,1.8-0.9,2.4c-0.6,0.6-1.3,1-2.2,1c-0.9,0-1.7-0.3-2.3-1
					c-0.6-0.6-0.9-1.4-0.9-2.4c0-0.9,0.3-1.7,0.9-2.3c0.6-0.7,1.4-1,2.3-1c0.8,0,1.5,0.3,2.2,1C487.6,160.7,487.9,161.5,487.9,162.4
					z"/>
				<path id="XMLID_1856_" class="st0" d="M513,159.1l-2.2,6.6l-1.4-0.3l-2.3,0.2l-1.8,0.1c-4.2,0-7.4-1.2-9.5-3.7
					c-0.9-1-1.6-2-2.1-3.1c-0.6-1.2-0.9-2.6-0.9-3.9c0-3,0.8-5.4,2.3-7.3c1.8-2.1,4.4-3.2,7.7-3.2l1.9,0l2.9,0.4l0.8-0.2l1.2-0.7
					l1.5,7.4l-1.2,0.5c-0.5-1.4-1.4-2.4-2.5-3.2c-1.1-0.8-2.3-1.1-3.6-1.1c-1.6,0-2.9,0.6-3.9,1.8c-1.1,1.3-1.7,3.2-1.7,5.8
					c0,2.1,0.8,3.9,2.2,5.3c1.5,1.4,3.2,2.1,5,2.1c1.2,0,2.3-0.3,3.3-1c1.1-0.7,2.1-1.8,2.9-3.3L513,159.1z"/>
				<path id="XMLID_1854_" class="st0" d="M521.9,162.3c0,1-0.3,1.8-0.9,2.4c-0.6,0.6-1.3,1-2.2,1c-0.9,0-1.7-0.3-2.3-1
					c-0.6-0.6-0.9-1.4-0.9-2.4c0-0.9,0.3-1.7,0.9-2.3c0.6-0.7,1.4-1,2.3-1c0.8,0,1.5,0.3,2.2,1C521.6,160.6,521.9,161.4,521.9,162.3
					z"/>
				<path id="XMLID_1852_" class="st0" d="M547.1,146.3h-0.3c-0.5,0-0.9,0.2-1.2,0.4c-0.3,0.3-0.5,0.8-0.7,1.5l-5.2,12.9l-0.4,0.8
					c0,0.1-0.1,0.3-0.2,0.6c-0.1,0.4-0.2,0.6-0.2,0.7c0.1,0.2,0.4,0.4,1,0.4l0,1.6l-7.6,0l0-1.7l0.7,0h0.1c0-0.2-0.1-0.6-0.2-1
					l-0.1-0.3l-5.2-14.6c-0.2-0.4-0.4-0.7-0.6-0.9c-0.3-0.3-0.7-0.4-1.3-0.4l0-1.6l8.8,0l0,1.6c-0.6,0-1,0.1-1.2,0.2
					c-0.2,0.2-0.3,0.4-0.3,0.7l0.2,0.6l3.9,11.8l4.4-12l0.1-0.7c0-0.2-0.1-0.3-0.2-0.5c-0.2-0.1-0.6-0.1-1-0.1l0-1.6l6.8,0
					L547.1,146.3z"/>
				<path id="XMLID_1850_" class="st0" d="M555.8,162.2c0,1-0.3,1.8-0.9,2.4c-0.6,0.6-1.3,1-2.2,1c-0.9,0-1.7-0.3-2.3-1
					c-0.6-0.6-0.9-1.4-0.9-2.4c0-0.9,0.3-1.7,0.9-2.3c0.6-0.7,1.4-1,2.3-1c0.8,0,1.5,0.3,2.2,1C555.5,160.5,555.8,161.3,555.8,162.2
					z"/>
			</g>
		</g>
	</g>
	<path id="XMLID_1846_" class="st1" d="M177.5,60.9l-0.1,13.6l-15.7,8.9c-35.1,20.1-70.2,40.1-105.4,60.1c-1.1,0.6-2.2,1.2-3.3,1.6
		c-6.2,2.5-9.4,0.4-9.5-6.4c-0.1-13.5,0-27,0-40.5c0-8.9-4.7-11.6-12.5-7.2c-9.3,5.3-18.5,10.7-28.3,16.5c0-4.4-0.2-8.1,0.1-11.8
		c0.1-1.1,1.2-2.4,2.2-3C32.3,77.2,60.7,61.1,88,45.6l0.6-0.3V46c0,17.4,0,34.7,0,52c0,8.8,3.3,10.9,11.1,6.6
		c23.6-13.2,47.2-26.6,70.8-39.9C172.5,63.6,174.5,62.5,177.5,60.9z"/>
</g>
</svg>
